<mxfile host="app.diagrams.net" modified="2022-12-20T06:30:25.545Z" agent="5.0 (Macintosh; Intel Mac OS X 10_15_7) AppleWebKit/605.1.15 (KHTML, like Gecko) Version/16.1 Safari/605.1.15" etag="4JxUJ193HIimvim-UcQ-" version="20.7.4" type="github">
  <diagram id="tszFnfISc_UFImnrdG81" name="Page-1">
    <mxGraphModel dx="573" dy="657" grid="0" gridSize="10" guides="1" tooltips="1" connect="1" arrows="1" fold="1" page="0" pageScale="1" pageWidth="827" pageHeight="1169" math="0" shadow="0">
      <root>
        <mxCell id="0" />
        <mxCell id="1" parent="0" />
        <mxCell id="Dp4mSWFW_FbhdyJdW7f3-1" style="edgeStyle=orthogonalEdgeStyle;rounded=0;orthogonalLoop=1;jettySize=auto;html=1;entryX=0;entryY=0.5;entryDx=0;entryDy=0;entryPerimeter=0;" parent="1" source="Dp4mSWFW_FbhdyJdW7f3-2" target="Dp4mSWFW_FbhdyJdW7f3-7" edge="1">
          <mxGeometry relative="1" as="geometry" />
        </mxCell>
        <mxCell id="Dp4mSWFW_FbhdyJdW7f3-2" value="函数原始信息" style="strokeWidth=2;html=1;shape=mxgraph.flowchart.multi-document;whiteSpace=wrap;" parent="1" vertex="1">
          <mxGeometry x="510" y="80" width="88" height="60" as="geometry" />
        </mxCell>
        <mxCell id="Dp4mSWFW_FbhdyJdW7f3-3" style="edgeStyle=orthogonalEdgeStyle;rounded=0;orthogonalLoop=1;jettySize=auto;html=1;entryX=0;entryY=0.5;entryDx=0;entryDy=0;" parent="1" source="Dp4mSWFW_FbhdyJdW7f3-7" target="Dp4mSWFW_FbhdyJdW7f3-26" edge="1">
          <mxGeometry relative="1" as="geometry" />
        </mxCell>
        <mxCell id="Dp4mSWFW_FbhdyJdW7f3-4" value="否" style="edgeLabel;html=1;align=center;verticalAlign=middle;resizable=0;points=[];" parent="Dp4mSWFW_FbhdyJdW7f3-3" vertex="1" connectable="0">
          <mxGeometry x="0.1915" relative="1" as="geometry">
            <mxPoint y="20" as="offset" />
          </mxGeometry>
        </mxCell>
        <mxCell id="Dp4mSWFW_FbhdyJdW7f3-5" style="edgeStyle=orthogonalEdgeStyle;rounded=0;orthogonalLoop=1;jettySize=auto;html=1;entryX=0;entryY=0.5;entryDx=0;entryDy=0;" parent="1" source="Dp4mSWFW_FbhdyJdW7f3-7" target="Dp4mSWFW_FbhdyJdW7f3-28" edge="1">
          <mxGeometry relative="1" as="geometry" />
        </mxCell>
        <mxCell id="Dp4mSWFW_FbhdyJdW7f3-6" value="是" style="edgeLabel;html=1;align=center;verticalAlign=middle;resizable=0;points=[];" parent="Dp4mSWFW_FbhdyJdW7f3-5" vertex="1" connectable="0">
          <mxGeometry x="-0.0412" y="1" relative="1" as="geometry">
            <mxPoint as="offset" />
          </mxGeometry>
        </mxCell>
        <mxCell id="Dp4mSWFW_FbhdyJdW7f3-7" value="信息是否可用" style="strokeWidth=2;html=1;shape=mxgraph.flowchart.decision;whiteSpace=wrap;" parent="1" vertex="1">
          <mxGeometry x="640" y="60" width="100" height="100" as="geometry" />
        </mxCell>
        <mxCell id="Dp4mSWFW_FbhdyJdW7f3-8" value="" style="edgeStyle=orthogonalEdgeStyle;rounded=0;orthogonalLoop=1;jettySize=auto;html=1;" parent="1" source="Dp4mSWFW_FbhdyJdW7f3-9" target="Dp4mSWFW_FbhdyJdW7f3-33" edge="1">
          <mxGeometry relative="1" as="geometry" />
        </mxCell>
        <mxCell id="Dp4mSWFW_FbhdyJdW7f3-9" value="规范化函数信息" style="strokeWidth=2;html=1;shape=mxgraph.flowchart.multi-document;whiteSpace=wrap;" parent="1" vertex="1">
          <mxGeometry x="826" y="250" width="88" height="60" as="geometry" />
        </mxCell>
        <mxCell id="Dp4mSWFW_FbhdyJdW7f3-10" style="edgeStyle=orthogonalEdgeStyle;rounded=0;orthogonalLoop=1;jettySize=auto;html=1;entryX=1;entryY=0.5;entryDx=0;entryDy=0;entryPerimeter=0;" parent="1" source="Dp4mSWFW_FbhdyJdW7f3-11" target="Dp4mSWFW_FbhdyJdW7f3-15" edge="1">
          <mxGeometry relative="1" as="geometry" />
        </mxCell>
        <mxCell id="Dp4mSWFW_FbhdyJdW7f3-11" value="函数指纹" style="strokeWidth=2;html=1;shape=mxgraph.flowchart.multi-document;whiteSpace=wrap;" parent="1" vertex="1">
          <mxGeometry x="618" y="430" width="88" height="60" as="geometry" />
        </mxCell>
        <mxCell id="Dp4mSWFW_FbhdyJdW7f3-12" style="edgeStyle=orthogonalEdgeStyle;rounded=0;orthogonalLoop=1;jettySize=auto;html=1;entryX=1;entryY=0.5;entryDx=0;entryDy=0;entryPerimeter=0;" parent="1" source="Dp4mSWFW_FbhdyJdW7f3-13" target="Dp4mSWFW_FbhdyJdW7f3-15" edge="1">
          <mxGeometry relative="1" as="geometry" />
        </mxCell>
        <mxCell id="Dp4mSWFW_FbhdyJdW7f3-13" value="函数特征索引" style="strokeWidth=2;html=1;shape=mxgraph.flowchart.multi-document;whiteSpace=wrap;" parent="1" vertex="1">
          <mxGeometry x="618" y="290" width="88" height="60" as="geometry" />
        </mxCell>
        <mxCell id="Dp4mSWFW_FbhdyJdW7f3-38" style="edgeStyle=none;curved=1;rounded=0;orthogonalLoop=1;jettySize=auto;html=1;entryX=1;entryY=0.5;entryDx=0;entryDy=0;entryPerimeter=0;fontSize=12;endArrow=classic;sourcePerimeterSpacing=8;targetPerimeterSpacing=8;endFill=1;" parent="1" source="Dp4mSWFW_FbhdyJdW7f3-15" target="Dp4mSWFW_FbhdyJdW7f3-20" edge="1">
          <mxGeometry relative="1" as="geometry" />
        </mxCell>
        <mxCell id="Dp4mSWFW_FbhdyJdW7f3-15" value="特征指纹库" style="strokeWidth=2;html=1;shape=mxgraph.flowchart.database;whiteSpace=wrap;" parent="1" vertex="1">
          <mxGeometry x="412" y="345" width="80" height="90" as="geometry" />
        </mxCell>
        <mxCell id="Dp4mSWFW_FbhdyJdW7f3-16" value="" style="edgeStyle=orthogonalEdgeStyle;rounded=0;orthogonalLoop=1;jettySize=auto;html=1;" parent="1" source="Dp4mSWFW_FbhdyJdW7f3-20" target="Dp4mSWFW_FbhdyJdW7f3-22" edge="1">
          <mxGeometry relative="1" as="geometry" />
        </mxCell>
        <mxCell id="Dp4mSWFW_FbhdyJdW7f3-17" value="是" style="edgeLabel;html=1;align=center;verticalAlign=middle;resizable=0;points=[];" parent="Dp4mSWFW_FbhdyJdW7f3-16" vertex="1" connectable="0">
          <mxGeometry x="-0.317" y="-2" relative="1" as="geometry">
            <mxPoint x="-8" y="2" as="offset" />
          </mxGeometry>
        </mxCell>
        <mxCell id="Dp4mSWFW_FbhdyJdW7f3-18" value="" style="edgeStyle=orthogonalEdgeStyle;rounded=0;orthogonalLoop=1;jettySize=auto;html=1;" parent="1" source="Dp4mSWFW_FbhdyJdW7f3-20" target="Dp4mSWFW_FbhdyJdW7f3-23" edge="1">
          <mxGeometry relative="1" as="geometry" />
        </mxCell>
        <mxCell id="Dp4mSWFW_FbhdyJdW7f3-19" value="否" style="edgeLabel;html=1;align=center;verticalAlign=middle;resizable=0;points=[];" parent="Dp4mSWFW_FbhdyJdW7f3-18" vertex="1" connectable="0">
          <mxGeometry x="-0.36" y="-1" relative="1" as="geometry">
            <mxPoint as="offset" />
          </mxGeometry>
        </mxCell>
        <mxCell id="Dp4mSWFW_FbhdyJdW7f3-20" value="比对任务？" style="strokeWidth=2;html=1;shape=mxgraph.flowchart.decision;whiteSpace=wrap;" parent="1" vertex="1">
          <mxGeometry x="228.99999999999997" y="340" width="100" height="100" as="geometry" />
        </mxCell>
        <mxCell id="Dp4mSWFW_FbhdyJdW7f3-21" style="edgeStyle=orthogonalEdgeStyle;rounded=0;orthogonalLoop=1;jettySize=auto;html=1;" parent="1" source="Dp4mSWFW_FbhdyJdW7f3-22" target="Dp4mSWFW_FbhdyJdW7f3-34" edge="1">
          <mxGeometry relative="1" as="geometry" />
        </mxCell>
        <mxCell id="Dp4mSWFW_FbhdyJdW7f3-22" value="相似计算" style="shape=parallelogram;html=1;strokeWidth=2;perimeter=parallelogramPerimeter;whiteSpace=wrap;rounded=1;arcSize=12;size=0.23;" parent="1" vertex="1">
          <mxGeometry x="228.99999999999997" y="482" width="100" height="60" as="geometry" />
        </mxCell>
        <mxCell id="Dp4mSWFW_FbhdyJdW7f3-23" value="结束" style="strokeWidth=2;html=1;shape=mxgraph.flowchart.start_1;whiteSpace=wrap;" parent="1" vertex="1">
          <mxGeometry x="51.99999999999997" y="360" width="100" height="60" as="geometry" />
        </mxCell>
        <mxCell id="Dp4mSWFW_FbhdyJdW7f3-24" style="edgeStyle=orthogonalEdgeStyle;rounded=0;orthogonalLoop=1;jettySize=auto;html=1;entryX=0;entryY=0.5;entryDx=0;entryDy=0;entryPerimeter=0;" parent="1" source="Dp4mSWFW_FbhdyJdW7f3-25" target="Dp4mSWFW_FbhdyJdW7f3-2" edge="1">
          <mxGeometry relative="1" as="geometry" />
        </mxCell>
        <mxCell id="Dp4mSWFW_FbhdyJdW7f3-25" value="函数预处理" style="rounded=0;whiteSpace=wrap;html=1;" parent="1" vertex="1">
          <mxGeometry x="347.65" y="80" width="120" height="60" as="geometry" />
        </mxCell>
        <mxCell id="Dp4mSWFW_FbhdyJdW7f3-26" value="丢弃" style="rounded=0;whiteSpace=wrap;html=1;" parent="1" vertex="1">
          <mxGeometry x="810" y="40" width="120" height="60" as="geometry" />
        </mxCell>
        <mxCell id="Dp4mSWFW_FbhdyJdW7f3-27" value="" style="edgeStyle=orthogonalEdgeStyle;rounded=0;orthogonalLoop=1;jettySize=auto;html=1;" parent="1" source="Dp4mSWFW_FbhdyJdW7f3-28" target="Dp4mSWFW_FbhdyJdW7f3-9" edge="1">
          <mxGeometry relative="1" as="geometry" />
        </mxCell>
        <mxCell id="Dp4mSWFW_FbhdyJdW7f3-28" value="规范化处理" style="rounded=0;whiteSpace=wrap;html=1;" parent="1" vertex="1">
          <mxGeometry x="810" y="140" width="120" height="60" as="geometry" />
        </mxCell>
        <mxCell id="Dp4mSWFW_FbhdyJdW7f3-29" value="" style="edgeStyle=orthogonalEdgeStyle;rounded=0;orthogonalLoop=1;jettySize=auto;html=1;" parent="1" source="Dp4mSWFW_FbhdyJdW7f3-30" target="Dp4mSWFW_FbhdyJdW7f3-36" edge="1">
          <mxGeometry relative="1" as="geometry" />
        </mxCell>
        <mxCell id="Dp4mSWFW_FbhdyJdW7f3-30" value="输入代码仓库" style="shape=parallelogram;html=1;strokeWidth=2;perimeter=parallelogramPerimeter;whiteSpace=wrap;rounded=1;arcSize=12;size=0.23;" parent="1" vertex="1">
          <mxGeometry x="50" y="80" width="100" height="60" as="geometry" />
        </mxCell>
        <mxCell id="Dp4mSWFW_FbhdyJdW7f3-31" style="edgeStyle=orthogonalEdgeStyle;rounded=0;orthogonalLoop=1;jettySize=auto;html=1;entryX=1;entryY=0.5;entryDx=0;entryDy=0;entryPerimeter=0;" parent="1" source="Dp4mSWFW_FbhdyJdW7f3-33" target="Dp4mSWFW_FbhdyJdW7f3-13" edge="1">
          <mxGeometry relative="1" as="geometry" />
        </mxCell>
        <mxCell id="Dp4mSWFW_FbhdyJdW7f3-32" style="edgeStyle=orthogonalEdgeStyle;rounded=0;orthogonalLoop=1;jettySize=auto;html=1;entryX=1;entryY=0.5;entryDx=0;entryDy=0;entryPerimeter=0;" parent="1" source="Dp4mSWFW_FbhdyJdW7f3-33" target="Dp4mSWFW_FbhdyJdW7f3-11" edge="1">
          <mxGeometry relative="1" as="geometry" />
        </mxCell>
        <mxCell id="Dp4mSWFW_FbhdyJdW7f3-33" value="规范化处理" style="rounded=0;whiteSpace=wrap;html=1;" parent="1" vertex="1">
          <mxGeometry x="810" y="360" width="120" height="60" as="geometry" />
        </mxCell>
        <mxCell id="Dp4mSWFW_FbhdyJdW7f3-34" value="展示报告" style="shape=parallelogram;perimeter=parallelogramPerimeter;whiteSpace=wrap;html=1;fixedSize=1;" parent="1" vertex="1">
          <mxGeometry x="218.99999999999997" y="577" width="120" height="60" as="geometry" />
        </mxCell>
        <mxCell id="Dp4mSWFW_FbhdyJdW7f3-35" value="" style="edgeStyle=orthogonalEdgeStyle;rounded=0;orthogonalLoop=1;jettySize=auto;html=1;" parent="1" source="Dp4mSWFW_FbhdyJdW7f3-36" target="Dp4mSWFW_FbhdyJdW7f3-25" edge="1">
          <mxGeometry relative="1" as="geometry" />
        </mxCell>
        <mxCell id="Dp4mSWFW_FbhdyJdW7f3-36" value="编程语言识别" style="rounded=0;whiteSpace=wrap;html=1;" parent="1" vertex="1">
          <mxGeometry x="190" y="80" width="120" height="60" as="geometry" />
        </mxCell>
      </root>
    </mxGraphModel>
  </diagram>
</mxfile>
